<?xml version="1.0" encoding="utf-8"?>
<svg xmlns="http://www.w3.org/2000/svg" data-name="pub casino" height="160" id="pub_casino" viewBox="0 0 560 160" width="560">
  <defs>
    <style>
      .cls-1 {
        fill-rule: evenodd;
        stroke-width: 0px;
      }
    </style>
  </defs>
  <path class="cls-1" d="M174.87,144.54h5.21v1.4h-3.01v1.4h2.81v1.2h-2.61v1.4h3.01v1.4h-5.21v-6.81h-.2ZM186.1,147.35c-.6-.2-1-.2-1.4-.2s-.6-.2-.6-.6c0-.2.2-.4.4-.4.2-.2.6-.2.8-.2.4,0,.6,0,.8.2s.4.4.4,1h2.2c0-.8-.2-1.4-.6-1.8s-1.4-.8-2.61-.8c-1.4,0-2.2.2-2.61.6-.4.4-.6,1-.6,1.6s.2,1,.6,1.4c.4.4,1,.6,2,.8.6.2,1,.2,1.4.2s.4.2.4.4-.2.4-.4.4c-.2.2-.4.2-.8.2s-.6,0-.8-.2-.4-.4-.4-1h-2.2c0,.8.2,1.4.6,1.8.4.4,1.4.6,2.61.6,1.4,0,2.2-.2,2.61-.6.4-.4.6-1,.6-1.6s-.2-1-.6-1.4c0,0-.6-.2-1.8-.4h0ZM190.71,145.94h2v5.61h2.2v-5.61h2v-1.4h-6.21v1.4ZM199.33,149.75c-.2,0-.4-.2-.6-.2s-.4,0-.6.2c-.2,0-.4.2-.4.4s-.2.4-.2.6,0,.4.2.6c0,.2.2.4.4.4s.4.2.6.2.4,0,.6-.2c.2,0,.4-.2.4-.4s.2-.4.2-.6,0-.4-.2-.6l-.4-.4ZM368.09,144.54l-.4,1.6v1.4h1.6v-1.6l-.2.4.4-1.8h-1.4ZM377.71,144.54h-2.61l-1.2,2.61-1.2-2.61h-2.41l2,3.61-2,3.41h2.61l1.2-2.61,1.2,2.61h2.61l-2-3.41,1.8-3.61ZM385.73,144.54h-2.61l-1.2,2.61-1.2-2.61h-2.41l2,3.61-2,3.41h2.61l1.2-2.61,1.2,2.61h2.61l-2-3.41,1.8-3.61ZM386.93,151.55h2.2v-7.02h-2.2v7.02ZM212.55,148.35c0,6.21,5.21,10.62,11.83,10.62,2.81,0,5.41-.6,7.22-1.8v-4.01h-.6c-1.4,1-4.01,1.6-6.21,1.6-4.41,0-7.62-3.01-7.62-6.41s3.01-6.61,7.62-6.61c2.41,0,4.81.8,6.21,1.8h.6v-4.01c-1.8-1.4-4.41-1.8-7.22-1.8-6.61-.2-11.83,4.41-11.83,10.62h0ZM257.85,138.33l3.01,19.84h-4.81l-.6-4.21h-13.03l-.6,4.21h-4.81l3.01-19.84h17.84ZM254.84,150.15l-1-8.02h-9.82l-1,8.02h11.83ZM278.7,146.14c-1.2-.2-3.21-.2-4.21-.2-2.61-.2-3.81-1-3.81-2.2s1.2-2.41,5.01-2.41c3.01,0,6.41.8,8.82,1.8h.4v-3.81c-1.6-.8-5.21-1.6-8.42-1.6-7.02,0-10.62,2.61-10.62,6.21,0,4.01,3.01,5.61,7.62,6.01,1.2.2,3.21.2,4.41.2,3.01.2,3.81,1.2,3.81,2.2,0,1.4-1.4,2.81-5.81,2.81-3.41,0-6.81-.8-9.22-2h-.4v4.01c2.41,1,6.01,1.8,9.42,1.8,7.22,0,11.02-2.41,11.02-6.61-.2-3.81-2.2-5.41-8.02-6.21h0ZM292.13,158.17h4.81v-19.84h-4.81v19.84ZM320.79,153.56h-.6l-9.62-15.23h-7.42v19.84h5.01v-15.03h.4l9.62,15.03h7.42v-19.84h-4.81v15.23h0ZM354.26,148.15c0,6.21-5.21,10.62-11.63,10.62s-11.63-4.41-11.63-10.62,5.21-10.62,11.63-10.62,11.63,4.41,11.63,10.62ZM349.25,148.35c0-4.01-3.01-6.41-6.81-6.41s-6.81,2.41-6.81,6.41,3.01,6.41,6.81,6.41,6.81-2.61,6.81-6.41ZM328.4,54.54c-2,1.4-7.42,6.01-7.42,14.43v21.25c0,10.22-3.01,17.24-9.02,21.45-5.81,4.01-15.63,6.01-29.66,6.01h-.4c-13.83,0-23.45-2-29.46-6.01-6.01-4.21-9.02-11.22-9.02-21.45v-21.65c0-8.22-5.41-13.03-7.42-14.43,6.81-5.01,7.42-13.83,7.42-14.03V15.06c0-7.02-4.61-11.02-7.22-12.83,3.21-.2,6.61-.4,6.61-.4h.6c10.02-.4,20.44-.6,30.47-.8v96.21c0,4.01.6,6.81,1.6,8.62,1.2,1.8,3.41,2.81,6.61,2.81,3.41,0,5.61-1,6.81-2.81,1-1.8,1.6-4.61,1.6-8.62V1.03c10.42,0,20.84.4,31.07.8,0,0,3.21,0,6.41.2-2.61,1.6-7.02,5.41-7.02,12.23v26.26c.2,1.4,1.4,9.42,7.42,14.03h0ZM269.08,6.24h-.8c-6.61.2-13.23.4-19.64.6h-2.2l.4.6c1,2.41,1.6,5.01,1.6,7.62v25.25s-.4,7.42-5.01,13.63l-.2.2.2.2c3.41,4.01,5.01,8.82,5.01,14.23v21.65c0,11.22,4.01,15.23,6.81,17.24l.4-.6c-5.61-5.01-4.61-17.64-4.61-17.84v-20.64c0-5.21-1.6-10.22-4.41-14.63,4.21-6.61,4.41-13.63,4.41-13.63V15.06c0-1.8-.2-3.81-.6-5.61h.8c5.01-.2,10.02-.4,15.03-.4v.6l2.81-3.41h0ZM317.78,6.64h-1c-7.02-.2-14.03-.4-21.05-.6h-.4v91c0,5.01-.8,8.62-2.41,11.22-.8,1.2-1.6,2.2-2.81,3.01l.4.6,4.81-2.2h0c1.8-3.01,2.61-7.02,2.61-12.43V9.05c5.21,0,10.42.2,15.63.4l-.2.8,4.41-3.61h0ZM147.81,127.3v-26.26c0-8.02-6.41-12.03-9.02-13.23,8.82-5.01,9.02-14.63,9.02-15.03V25.68c0-1.6-.6-9.22-9.62-12.83l10.62-1.6.8-.2c16.03-2.41,32.27-4.41,48.3-6.01,1.6-.2,3.21-.2,4.61-.2,10.82,0,17.04,4.41,18.24,12.83,1.4,9.82,2.2,19.24,2.2,28.26s-.8,18.64-2.2,28.66c-1.4,9.62-8.82,15.03-22.85,16.44-6.41.6-12.83,1.4-19.24,2h-.6v30.27c-10.02,1-20.24,2.41-30.27,4.01ZM190.71,10.85l1,.6c3.61,2,4.81,6.61,5.01,8.62.8,4.61,1,24.05,1,28.46,0,4.81-.2,23.45-1,28.26-.6,3.81-2,6.81-4.41,8.62l-2.41,1.8,3.01-1.4c3.41-1.6,5.81-4.81,6.41-8.62h0c.8-5.81,1-28.46,1-28.66s0-23.45-1-29.06c-.2-1.4-.8-4.01-2.41-6.61l1.8-.2c3.61-.4,6.81-.2,9.02.4,2.61.4,6.21,2.41,7.82,9.62v.4l1,2.81-.4-3.01c0-.4-.2-1.8-.4-3.01-.2-.8-.2-1.4-.2-1.8-.6-4.21-2.61-8.42-13.23-8.42-1.2,0-2.61,0-4.01.2-2.2.2-4.61.4-6.81.6l-.8.4h0ZM178.08,83.01h.6c2.81-.4,5.41-.6,8.22-1,2.41-.2,4.01-2.41,4.61-6.21.6-3.81.8-19.84.8-27.46s-.2-24.05-.8-27.66c-.6-3.61-2-5.41-4.21-5.41h-.4c-2.81.2-5.41.6-8.22,1h-.6v66.74h0ZM152.83,101.04v20.24h.6c1.2-1.6,2-3.61,2-5.61v-14.43c0-5.01-1.8-9.82-5.01-13.63,4.61-6.41,5.01-13.23,5.01-14.63V25.68c0-1.8-.2-4.41-1.4-7.42,5.41-.8,10.82-1.6,16.23-2.2v.6l3.01-3.81-.8.2c-7.42,1-14.63,2-22.05,3.01h-.4l.2.4c1.6,2.81,2.61,6.01,2.61,9.22v47.3c0,.8-.2,8.22-5.61,14.43l-.2.2.2.2c3.61,3.61,5.61,8.42,5.61,13.23h0ZM421.81,93.23c0,8.62-.6,16.64-1.6,23.65-.8,5.41-4.81,8.02-12.43,8.02-1.8,0-3.61-.2-5.81-.4-18.64-2.41-37.48-4.41-56.32-5.61h-.4l-7.42-.6c7.22-3.81,8.02-11.02,8.02-13.23v-35.48c0-1-.2-10.02-7.42-15.03,2.2-1.4,7.42-5.41,7.42-13.43v-24.85c-.2-3.61-1.2-10.02-7.02-14.03l12.63.8h.4c16.84,1.2,33.67,3.01,50.31,5.21,10.22,1.4,16.03,5.61,17.04,12.43,1,7.02,1.6,13.03,1.6,17.84s-.4,10.42-1,15.83c-.6,4.41-3.41,6.61-9.02,6.61-1,0-2,0-3.01-.2l-.2,1.2c7.62,1.4,11.83,5.21,12.83,11.22,1,6.81,1.4,13.23,1.4,20.04h0ZM376.51,54.14h.6c3.01.4,6.01.6,9.02,1h.4c1.2,0,3.01-.6,3.41-3.61.4-2.41.4-9.82.4-13.43s-.2-15.63-.4-17.84c-.4-3.21-2.2-4.01-3.61-4.21-3.01-.4-6.01-.6-9.22-1h-.6v39.08h0ZM371.7,10.05h-.8c-6.61-.6-13.03-1.2-19.64-1.6l-2-.2.2.4c1,3.01,1.2,5.61,1.4,7.42v25.05c0,5.21-1.6,9.62-4.81,13.23l-.2.2.2.2c4.41,5.81,4.81,12.63,4.81,14.63v35.48c0,1.2-.2,4.61-1.6,8.02l-.4.8.8-.4c2-1,3.41-3.01,3.61-5.21.2-1.4.2-2.61.2-3.21v-35.28c0-1.8-.4-8.62-4.21-14.63,2.81-4.01,4.21-8.42,4.21-13.63v-25.25c0-1.2-.2-2.81-.6-4.81,5.21.4,10.62.8,15.83,1.4h.2l2.81-2.61h0ZM391.14,108.46c.4-2.81.6-15.83.6-21.85,0-5.21-.2-14.03-.6-17.24-.4-3.41-1.8-5.21-4.01-5.41-3.21-.4-6.61-.8-10.02-1h-.6v48.71h.6c3.41.4,6.81.8,10.22,1.2h.4c1.8,0,3.01-1.4,3.41-4.41h0ZM410.18,19.47s.2.2.4.6c1,1.4,1.8,3.01,2.61,4.81.6,1.4,1,2.81,1.4,4.61l.6-.2c-.2-2.41-.6-4.81-1-7.42-.2-1.6-1-6.61-12.63-8.22-3.21-.4-6.41-.8-9.82-1.2l-1.2-.2,1,.8c2,1.6,3.21,3.81,3.41,6.81.4,3.01.4,16.84.4,18.44,0,2.81-.2,11.22-.6,14.23-.4,3.21-2,5.61-4.21,7.02l-.6.4.6.2c2.2,1,4.81,3.41,5.41,9.02.4,3.61.6,12.83.6,17.84,0,4.01-.2,19.04-.6,22.45-.6,5.21-3.21,7.22-5.21,8.22l-1.2.6,1.2.2h0c.6,0,5.01-.8,6.81-4.61.4-1.2.8-2.41,1-3.81.4-3.81.6-20.04.6-22.85,0-5.01-.2-14.43-.6-18.04-.4-4.01-1.8-7.02-4.21-9.22,1.6-1.8,2.61-4.01,3.01-6.81.4-3.41.6-12.43.6-14.63,0-.2,0-15.43-.6-18.84-.2-1.2-.4-2.61-1-3.61,1.4.2,3.01.4,4.41.6,4.61,0,7.62,1.2,9.42,2.81h0Z"/>
</svg>